<svg width="270" height="81" viewBox="0 0 270 81" fill="none" xmlns="http://www.w3.org/2000/svg">
<path d="M124.203 0.0590134C118.265 0.176756 112.018 0.376909 106.465 0.624168C96.2854 1.08336 91.6581 1.51902 89.7686 2.2137L88.8432 2.54337L88.6118 13.1873C88.4576 19.0509 88.4576 25.1028 88.6118 26.6452L88.8432 29.4475L87.5707 29.2238C86.8766 29.1061 84.4087 28.4938 82.0566 27.8815C79.7044 27.2693 76.0411 26.3156 73.8818 25.774C68.4447 24.3964 67.2108 24.0196 65.7455 23.3367C63.9717 22.5007 63.0463 21.5588 62.3136 19.9222C61.1954 17.3671 60.5398 16.4134 59.4216 15.6952C57.3393 14.3647 53.2905 13.4463 47.4679 12.9636C43.419 12.6221 34.473 12.681 27.4936 13.0931C21.4782 13.4346 20.5527 13.5523 20.2057 13.9762C19.7429 14.5649 20.7841 14.7768 31.0411 16.1308C39.2159 17.2141 40.6427 17.4731 41.7224 18.1325C43.0334 18.9096 42.8792 19.7455 41.2211 20.9112C38.9075 22.5125 36.4782 23.3367 33.3162 23.5839C30.3085 23.8194 28.2262 23.631 20.5527 22.4536C12.8021 21.2644 10.0643 21.0407 9.02314 21.4646C7.86632 21.9591 8.25193 22.2417 12.7249 24.4435C18.2776 27.1869 26.2982 29.1649 32.6607 29.3651C34.4345 29.424 36.3625 29.3533 40.9897 29.0707C47.6992 28.6704 52.7892 28.588 54.9871 28.8706C57.3393 29.1767 67.1337 31.3078 67.1337 31.508C67.1337 31.5551 53.9075 31.5904 37.7506 31.5904C10.6427 31.5904 8.21337 31.6022 6.86375 31.7906C4.24165 32.1556 2.42931 32.6854 1.19537 33.4508L0 34.1808L0.115681 42.8937L0.231362 51.6066L1.07969 52.0894C2.15938 52.7134 3.93316 53.255 5.97686 53.5847L7.55784 53.8437L46.6195 53.8791L85.6812 53.9026L85.2571 54.1499C84.6401 54.4796 79.4345 55.6452 76.1183 56.175C70.2571 57.1052 68.2134 57.2112 61.5039 56.905C54.4473 56.5754 50.437 56.7049 46.2725 57.3878C39.6015 58.471 28.8817 63.4398 31.2725 64.3228C32.1594 64.6407 33.5476 64.5112 40.0643 63.4868C47.3907 62.333 50.7455 61.9091 52.7121 61.9091C56.9152 61.9091 61.6195 63.6399 62.0437 65.3354C62.2365 66.2538 61.7352 66.819 60.2699 67.2782C59.6915 67.4548 55.5656 68.1377 51.054 68.797C42.3779 70.0922 46.3882 69.8214 47.4679 70.3277C49.4344 71.2461 59.1517 72.3175 65.9383 71.7524C71.9152 71.2578 76.3111 70.1864 78.8175 68.6204C80.5141 67.5607 81.2468 66.7248 81.7866 65.0999C82.8663 62.0268 85.7198 61.0143 110.476 54.9388L114.679 53.9026H116.992H119.306L119.036 54.8563C118.419 56.9168 116.838 58.0236 112.635 59.3305C110.051 60.1194 109.126 60.3196 104.383 61.0378C100.99 61.5559 98.7147 61.968 98.2134 62.1799C97.4036 62.5096 97.4036 62.6156 97.2879 69.4211L97.2108 76.3208L98.5219 76.9684C99.2159 77.3334 99.9486 77.7455 100.064 77.8867C100.334 78.1458 100.527 78.1576 104.961 78.1576H109.589L109.82 77.8043C109.936 77.6042 110.206 77.4511 110.398 77.4511C110.591 77.4511 111.787 77.7337 113.021 78.0751C116.067 78.9111 118.766 79.3821 123.239 79.8766C128.599 80.4535 133.072 80.6655 138.47 80.5948C145.643 80.4889 149.73 80.0414 157.211 78.5108C161.954 77.5335 162.378 77.4746 162.378 77.7337C162.378 77.8279 162.802 78.0045 163.303 78.0987C164.075 78.2517 164.846 78.2753 168.008 78.1929C171.748 78.0987 171.748 78.0987 172.134 77.7455C172.326 77.5453 173.098 77.2038 173.792 76.9801L175.103 76.5563V69.5388V62.5096L173.676 62.1446C172.866 61.9444 169.897 61.4146 167.082 60.9672C161.067 60.0134 158.985 59.566 156.054 58.6123C153.47 57.7528 151.774 56.7049 151.195 55.6099C150.964 55.1507 150.694 54.6679 150.578 54.5267C150.347 54.1499 151.388 53.9026 153.316 53.9026C155.283 53.9026 156.902 54.2323 165.27 56.387C180.771 60.3549 181.35 60.5197 183.817 61.6265C186.555 62.8628 187.519 63.6752 188.599 65.6415C189.023 66.4304 189.717 67.4194 190.141 67.8315C192.108 69.7743 197.429 71.2108 204.717 71.7641C208.419 72.0467 217.211 72.0467 220.604 71.7641C223.959 71.4933 226.465 71.093 227.159 70.7045C227.699 70.4219 227.661 70.3748 226.774 70.0922C226.234 69.9156 222.147 69.2209 217.674 68.5615C210.463 67.4783 209.422 67.2899 208.612 66.8896C207.301 66.2538 207.185 65.2294 208.265 64.3581C209.267 63.5339 212.237 62.4978 214.55 62.1564C217.596 61.7089 218.638 61.7914 226.851 63.0747C235.064 64.3699 237.648 64.6525 238.612 64.3464C239.422 64.0991 238.997 63.428 237.416 62.486C235.296 61.2144 230.437 59.048 228.355 58.4592C223.38 57.0346 214.126 56.387 206.337 56.905C202.789 57.1405 200.167 57.117 197.622 56.8344C194.923 56.5283 186.748 54.8799 185.321 54.35L184.242 53.9615L223.342 53.9026L262.442 53.8437L264.293 53.5612C266.375 53.255 267.571 52.8194 268.997 51.8774L270 51.2181L269.884 42.5876L269.769 33.9453L268.728 33.4037C268.149 33.1093 266.954 32.6619 266.067 32.4264C262.866 31.5316 265.064 31.5904 232.057 31.5904C215.784 31.5904 202.519 31.5551 202.558 31.508C202.712 31.3903 210.386 29.6948 212.853 29.2356C216.864 28.5056 220.488 28.4232 227.005 28.9295C238.573 29.8243 243.817 29.2945 252.494 26.3273C257.159 24.7378 261.478 22.5949 261.478 21.8649C261.478 20.9583 258.432 21.0878 250.257 22.3241C242.892 23.4309 240.27 23.7606 238.728 23.7606C235.026 23.7606 231.247 22.6891 228.355 20.817C225 18.6505 227.082 17.6144 237.571 16.2839C245.63 15.2596 249.1 14.6826 249.91 14.2234C250.835 13.6936 249.602 13.517 241.427 13.0225C237.918 12.8105 235.681 12.7634 230.823 12.7634C225.193 12.7634 224.383 12.787 221.53 13.0813C214.357 13.8113 210.039 15.236 208.689 17.2965C208.496 17.6497 208.033 18.6859 207.686 19.6043C207.069 21.3351 206.414 22.2064 205.103 22.9835C203.946 23.6781 197.622 25.5267 190.296 27.3164C186.671 28.1994 183.509 29.0119 183.239 29.1061C181.697 29.6712 181.697 29.5888 181.504 22.3123C181.388 18.4857 181.311 15.13 181.35 14.871C181.35 14.612 181.35 13.7878 181.35 13.046C181.311 12.3042 181.311 11.48 181.35 11.221C181.35 10.962 181.35 10.126 181.35 9.36066C181.35 8.60711 181.35 7.80646 181.35 7.59453C181.542 3.34403 181.504 3.00257 180.501 2.44918C178.766 1.49547 175.219 1.14225 160.835 0.518211C157.134 0.353372 151.581 0.164983 148.496 0.0943375C143.445 -0.0116307 128.56 -0.0351806 124.203 0.0590134ZM148.997 0.800789C162.262 1.04805 172.018 1.54256 176.26 2.19015C179.267 2.64934 179.73 2.96724 179.73 4.70983C179.73 5.46338 179.576 6.11097 179.383 6.14629C179.19 6.18162 177.339 6.04032 175.219 5.81661C169.974 5.25145 167.545 5.08662 161.992 4.87468C147.841 4.33306 123.432 4.29774 109.357 4.80403C104.113 4.99242 100.488 5.23968 95.3213 5.7342L90.6555 6.19339V4.39194V2.59047L92.3136 2.39031C98.6375 1.60144 108.432 1.04805 119.769 0.812569C126.671 0.671278 141.44 0.671272 148.997 0.800789ZM154.666 6.21693C161.491 6.37 164.653 6.51129 170.36 6.92339C178.111 7.48856 179.344 7.77114 179.653 9.04276C179.769 9.61969 179.692 9.86696 179.383 9.86696C179.152 9.86696 177.956 9.73743 176.722 9.58437C167.969 8.46581 153.625 8.00663 131.722 8.14792C110.514 8.27744 101.298 8.60711 94.5116 9.45486C90.347 9.97292 90.6555 10.02 90.6555 8.93679V7.98307L92.2751 7.73582C100.373 6.47597 114.717 5.94613 138.085 6.0521C144.332 6.07565 151.812 6.14629 154.666 6.21693ZM148.303 9.74921C157.365 9.91405 164.229 10.1731 168.972 10.5145C175.45 10.9973 177.648 11.2563 178.805 11.6684C179.692 11.9863 179.807 12.1158 179.653 12.7163C179.576 13.0931 179.383 13.4345 179.229 13.4699C179.075 13.517 177.956 13.411 176.722 13.2462C168.895 12.1747 144.139 11.4447 125.553 11.7391C109.974 11.9863 98.1363 12.5868 91.3111 13.4581C90.6941 13.5405 90.617 13.4699 90.7327 12.575L90.8483 11.5978L92.9692 11.2681C97.2494 10.6205 108.625 9.96115 119.19 9.76099C126.787 9.6197 140.746 9.6197 148.303 9.74921ZM46.8895 13.5758C51.9023 13.9762 55.6041 14.8475 57.5321 16.072C58.9589 16.9904 59.653 17.9559 60.3856 20.1341C61.1183 22.2535 61.6967 22.8539 63.8175 23.7135C65.9383 24.5848 66.7095 24.8085 76.3882 27.3046C90.964 31.0606 92.5064 31.4727 92.3522 31.5198C92.0823 31.6022 89.0746 30.9311 86.4139 30.1893C83.0591 29.2474 74.0746 26.9867 71.6452 26.4804C69.4473 26.0212 67.7121 25.8564 66.2468 25.9506C64.9357 26.033 65.09 26.1154 66.8252 26.2331L68.0977 26.3273L66.4781 26.3391C65.1671 26.3509 64.7429 26.4098 64.0874 26.6923C63.0848 27.128 61.0797 27.2575 59.4602 26.9985C58.0334 26.7748 57.108 26.7512 57.8021 26.9632C58.7661 27.2575 58.1877 27.2928 56.6452 27.0338C55.7584 26.8807 54.6015 26.5393 54.0231 26.2685L53.0206 25.7857L51.0925 26.139C46.5039 27.022 43.0334 27.4341 38.946 27.5872C34.2802 27.7638 28.3033 27.0809 24.3702 25.9035C22.5193 25.3501 20.4756 24.4435 20.4756 24.1727C20.4756 24.0431 22.365 24.1256 24.3702 24.3257C25.527 24.4552 26.9537 24.5848 27.5707 24.6319C28.5347 24.7025 28.6504 24.6907 28.2262 24.5494C27.9949 24.4552 27.2622 24.3139 26.6067 24.2315C24.91 24.0078 25.4499 23.9843 27.6093 24.1727C30.5013 24.4435 33.1234 24.3964 35.437 24.0431C39.2931 23.4544 43.4961 21.6765 44.383 20.2165C44.7686 19.6278 44.3445 17.9088 43.8046 17.6262C43.6504 17.5673 43.7661 17.5202 43.9974 17.5202C44.2288 17.5202 44.4987 17.5909 44.5758 17.6615C45.3856 18.368 45.6555 18.5092 45.8098 18.3091C46.0797 17.9912 44.1517 16.8726 42.7635 16.5194C41.4524 16.1779 37.1722 15.495 33.2005 14.9887C29.7686 14.5531 29.6144 14.506 30.3856 14.141L31.0026 13.8466L28.1491 13.9408C26.5681 13.9762 25.2571 14.035 25.18 14.0468C25.1028 14.0586 28.7275 14.6473 33.2005 15.342C42.0309 16.7313 42.8021 16.8609 42.3393 17.0021C42.1851 17.061 41.7224 17.0375 41.3753 16.955C41.0283 16.8726 36.671 16.1897 31.6967 15.4362C21.5938 13.8937 21.8252 13.9997 27.9563 13.6818C35.7455 13.2579 42.455 13.2226 46.8895 13.5758ZM142.905 13.3992C160.913 13.6347 168.663 13.9408 174.987 14.6826C180 15.2831 179.537 14.4707 179.653 22.3947C179.692 26.1507 179.653 29.3651 179.537 29.5182C179.344 29.7654 179.152 29.789 177.725 29.7183C175.411 29.6006 174.023 29.3533 171.054 28.4703C160.064 25.2323 131.722 24.314 110.129 26.4804C105.617 26.9396 101.105 27.7638 98.0977 28.6822C95.5913 29.4593 93.7789 29.7654 91.8123 29.7654H90.6555V22.536V15.2949L93.0848 14.9417C102.301 13.6112 118.997 13.0931 142.905 13.3992ZM241.041 13.6583C243.702 13.7878 246.131 13.9408 246.44 13.9879C246.864 14.0586 244.627 14.4471 238.689 15.3302C234.139 16.0013 229.627 16.7431 228.663 16.955C226.157 17.5438 225.848 17.5909 226.311 17.3318C227.044 16.9079 228.548 16.59 231.979 16.0837C233.907 15.8012 237.609 15.236 240.27 14.8239L245.09 14.0704L241.658 13.9055C239.769 13.8231 238.149 13.776 238.072 13.7996C237.995 13.8231 238.458 13.9055 239.113 13.9879C239.73 14.0704 240.27 14.1763 240.27 14.2234C240.27 14.3647 238.689 14.6473 232.982 15.5421C226.851 16.4959 225.231 16.9433 224.306 17.897C223.573 18.6623 223.573 18.6976 224.036 18.6976C224.229 18.6976 224.499 18.521 224.614 18.2973C224.769 18.0736 225.154 17.8263 225.501 17.7439C226.041 17.6026 226.08 17.6144 225.887 17.8146C225.733 17.9441 225.463 18.3091 225.27 18.627C224.537 19.8515 227.044 21.9473 230.707 23.1247C233.56 24.0549 235.141 24.2786 238.728 24.2904C241.195 24.2904 242.044 24.2315 244.396 23.9018C247.635 23.4544 248.83 23.4073 246.632 23.8194C245.244 24.0785 244.203 24.208 239.113 24.6907C237.841 24.8085 237.879 24.8085 239.73 24.7614C240.81 24.726 242.969 24.5612 244.55 24.4081C247.404 24.1138 249.524 24.0314 249.524 24.2198C249.524 24.4317 246.131 25.7151 244.165 26.2567C239.229 27.6107 233.522 27.9286 226.388 27.2693C223.38 26.9867 222.262 26.8219 219.332 26.2096C218.059 25.9506 217.018 25.7622 216.979 25.7857C215.553 26.504 213.509 27.0691 211.735 27.234L210.771 27.3282L211.542 27.0573L212.314 26.7865L211.542 26.8807C211.118 26.9396 210.077 26.9985 209.19 27.0338C207.918 27.0691 207.416 27.022 206.414 26.763C205.72 26.5864 204.717 26.4098 204.139 26.3509L203.059 26.2567L204.023 26.139L204.987 26.0212L203.907 25.9388C203.329 25.8917 202.288 25.8799 201.671 25.927C200.051 26.0212 191.067 28.1406 182.584 30.4248C179.46 31.2607 177.879 31.6022 177.571 31.4962C177.301 31.4138 182.815 29.9303 188.213 28.6351C196.041 26.763 204.023 24.5848 205.797 23.8548C208.535 22.7009 208.959 22.2652 210 19.1333C210.617 17.2847 211.465 16.4017 213.316 15.5657C217.828 13.5405 226.581 12.94 241.041 13.6583ZM17.1594 22.7127C20.1285 23.1718 22.7892 23.6075 22.982 23.6664C23.5219 23.8194 21.4781 23.5486 16.5039 22.8186C14.2288 22.4772 12.2622 22.2299 12.108 22.277C11.7224 22.383 12.9177 23.0894 15.4242 24.2315C18.3162 25.5502 18.4704 25.6327 17.3907 25.3501C15.617 24.8791 10.8355 22.4301 10.8355 21.9826C10.8355 21.7825 11.7995 21.8885 17.1594 22.7127ZM69.0231 27.0456C69.4859 27.128 71.1054 27.5165 72.5707 27.9169C74.0746 28.3172 77.6607 29.2591 80.5527 30.0009C83.4447 30.7427 85.874 31.4256 85.9512 31.4962C86.144 31.6846 77.3908 31.7082 75.8483 31.5316C75.3085 31.4727 73.6118 31.0841 72.0694 30.672C70.527 30.2717 68.2905 29.7066 67.1337 29.424C63.2391 28.4938 62.3522 27.964 63.6632 27.3164C64.8586 26.7159 66.4782 26.6335 69.0231 27.0456ZM205.064 26.9278C206.491 27.1986 207.031 27.7285 206.337 28.2465C206.067 28.4467 203.406 29.2238 199.936 30.1186L194.036 31.6611L188.715 31.6258L183.393 31.5904L190.527 29.7183C197.506 27.8815 202.558 26.7041 203.406 26.7041C203.638 26.7041 204.37 26.8101 205.064 26.9278ZM125.09 27.3164C125.321 27.5519 124.396 30.7191 124.01 31.0017C123.933 31.0606 123.856 30.2011 123.856 29.0825C123.817 27.4341 123.933 27.0573 124.357 27.0573C124.627 27.0573 124.974 27.1751 125.09 27.3164ZM146.53 28.847C147.108 31.0606 147.262 31.4138 147.725 31.4138C147.956 31.4138 148.111 31.4727 148.111 31.5433C148.111 31.614 147.455 31.6493 146.491 31.6258L144.833 31.5904L144.717 29.318C144.64 27.1751 144.679 27.0573 145.334 27.0573C145.99 27.0573 146.105 27.234 146.53 28.847ZM128.368 29.0943L128.483 30.5896H131.067C133.843 30.5896 135.733 30.8251 136.542 31.2843C137.005 31.5669 136.581 31.614 135.424 31.3903C134.884 31.2843 134.383 31.2961 133.111 31.4491C131.954 31.6022 130.951 31.6258 129.409 31.5787L127.288 31.4962V29.5064C127.288 27.964 127.404 27.5165 127.789 27.5519C128.098 27.5872 128.29 28.0346 128.368 29.0943ZM142.442 29.1296L142.172 30.5308L141.864 29.2474C141.632 28.329 141.671 27.9286 141.979 27.8109C142.249 27.7167 142.519 27.6578 142.596 27.6932C142.674 27.7167 142.596 28.3643 142.442 29.1296ZM119.113 30.0245L118.997 31.5904L108.586 31.6258C97.3265 31.6611 95.8226 31.6022 94.5501 31.0959C93.3933 30.6603 93.5476 30.5896 95.3213 30.5896C96.401 30.5896 98.1748 30.413 100.643 30.0716C105.347 29.4122 110.784 28.8588 114.524 28.6586C119.692 28.3643 119.229 28.223 119.113 30.0245ZM154.666 28.6351C158.329 28.8353 163.535 29.3651 167.931 29.9891C170.013 30.2835 172.249 30.5072 173.522 30.5425C176.877 30.6603 176.992 30.7309 174.91 31.2254L173.059 31.6493H162.224C154.28 31.6493 151.234 31.614 150.887 31.508C150.578 31.4138 150.424 30.884 150.424 29.9185C150.424 28.2583 150 28.3878 154.666 28.6351ZM207.416 28.847C207.108 29.0001 205.373 29.4946 203.599 29.9538C201.71 30.4483 200.36 30.884 200.36 31.0135C200.36 31.1666 200.051 31.2372 199.28 31.2607C198.663 31.2725 197.931 31.3432 197.622 31.4256C197.314 31.4962 196.967 31.5433 196.889 31.508C196.62 31.4256 207.262 28.588 207.841 28.588C207.918 28.588 207.725 28.7057 207.416 28.847ZM263.445 33.0033C266.684 33.7098 266.491 33.0622 266.491 42.776C266.491 52.4897 266.684 51.8775 263.406 52.5486L261.671 52.9018L135.617 52.9371L9.56298 52.9607L7.55784 52.6781C5.47558 52.3837 4.31877 51.9952 3.58612 51.3241C3.23907 51.0415 3.12339 48.769 3.12339 42.8937V34.534L4.04884 33.9453C5.01285 33.3095 6.24679 32.9091 7.75064 32.7208C8.40617 32.6501 51.6324 32.6148 135.27 32.6266L261.787 32.6501L263.445 33.0033ZM90.6555 54.2676C90.6555 54.3029 89.6144 54.5149 88.3419 54.715C84.6015 55.3273 82.5578 55.9749 82.5578 56.5636C82.5578 56.7284 82.635 56.7402 83.1748 56.5989C83.7532 56.4576 83.7918 56.4694 83.5604 56.7049C82.8663 57.3525 86.1054 58.4946 88.6118 58.4946C90.1542 58.4946 93.4704 57.8117 97.5964 56.6696C103.612 54.9858 108.47 53.8908 109.087 54.0792C109.55 54.2087 108.509 54.5502 106.581 54.9034C105.501 55.0918 104.19 55.445 103.612 55.6805C103.072 55.9278 101.722 56.3046 100.604 56.5283C99.4859 56.752 98.2134 57.0581 97.7892 57.1994C96.9023 57.4938 93.0848 58.4004 91.8895 58.6005C91.4653 58.6712 90.1542 58.7301 88.9974 58.7301C87.0694 58.7301 86.7609 58.6947 85.2956 58.2591C84.4473 58.0001 83.5604 57.7881 83.4062 57.7881C83.2519 57.7881 83.0977 57.9765 83.0977 58.2002C83.0977 58.5417 82.7506 58.7301 81.0154 59.2599C79.8586 59.6131 79.126 59.9075 79.3959 59.9075C79.6273 59.9075 80.437 59.7191 81.1697 59.4954C81.9409 59.2717 82.7121 59.0833 82.9435 59.0833C83.599 59.0833 81.7866 59.7544 80.2442 60.0841C79.473 60.2489 78.3548 60.5433 77.7378 60.7317C76.581 61.1085 75.6555 61.1673 74.4216 60.9672C73.3805 60.7905 73.4576 61.026 74.7686 61.9915C75.7712 62.7451 75.8098 62.8864 75.7712 64.6172C75.7712 66.1949 75.617 66.5482 74.8843 67.1957C73.3805 68.5144 71.144 69.2798 66.7481 69.9862C64.7044 70.3159 64.3959 70.3277 59.5373 70.3277C56.7609 70.3277 54.3702 70.2924 54.2159 70.2453C53.599 70.0686 54.9486 69.6801 57.7635 69.2327C63.162 68.3614 64.3959 67.9846 65.437 66.8778C66.2853 65.983 65.8997 65.8652 64.8586 66.7012C63.7404 67.6078 61.6581 68.2436 57.8792 68.7853C53.5604 69.4211 52.9049 69.2915 57.0694 68.6322C61.0026 67.9964 63.0848 67.4665 63.8946 66.8896C64.5887 66.3951 64.5887 65.041 63.8946 64.3346C63.162 63.6164 59.6915 62.227 57.5321 61.7796C53.8689 61.0378 50.6298 61.1438 43.9203 62.1917C39.2931 62.9335 37.0566 63.1807 38.7918 62.7804C40.2571 62.4389 47.6607 61.3439 49.7429 61.1556C52.4807 60.9083 53.8303 60.9201 55.9512 61.2026L56.4139 61.0849C55.7198 60.8965 54.6787 60.7199 54.1003 60.7081C50.1671 60.6493 47.9306 60.8376 41.9923 61.7443C39.7172 62.0975 37.6735 62.3801 37.4807 62.3801C37.2879 62.3801 37.0566 62.1564 36.9794 61.8738C36.8252 61.4381 37.018 61.2851 38.7147 60.5197C42.1465 58.9891 46.4653 57.9765 51.1311 57.5997C53.7918 57.376 58.8818 57.3996 62.9692 57.635C70.0257 58.0471 74.653 57.5409 84.2545 55.2567C88.419 54.2794 90.1157 53.9379 90.347 54.0439C90.5013 54.1263 90.6555 54.2323 90.6555 54.2676ZM105.501 54.1499C104.19 54.5855 93.7404 57.2465 91.5424 57.6939C88.9589 58.2355 87.9949 58.2473 86.2211 57.7763C84.4087 57.2818 84.3702 56.7873 86.144 56.2339C87.8792 55.7041 94.1645 54.1028 94.8972 53.9968C95.2057 53.9497 97.9049 53.9144 100.835 53.9144L106.195 53.9026L105.501 54.1499ZM122.314 54.7975C122.159 55.8689 121.041 57.1405 119.499 58.106C118.149 58.9184 114.1 60.3549 111.71 60.8612C110.321 61.1438 110.321 61.1555 110.321 61.9915C110.321 62.4625 110.476 62.851 110.63 62.851C110.784 62.851 111.941 62.5331 113.213 62.1328C115.835 61.3322 118.38 60.7788 122.198 60.2136C125.051 59.778 129.563 59.3188 130.951 59.3188C132.455 59.3188 132.416 59.1068 130.874 58.9538C127.365 58.6123 124.936 57.5055 124.203 55.9631C123.74 54.9388 123.702 53.9026 124.165 53.9026C124.974 53.9026 125.36 54.2441 125.129 54.7504C124.781 55.4804 125.591 56.5047 126.902 57.0699C127.519 57.3289 128.869 57.6821 129.871 57.8705C131.491 58.1649 132.108 58.2002 135 58.2002C137.892 58.2002 138.509 58.1649 140.09 57.8705C143.522 57.2583 144.64 56.54 144.64 54.9505V53.9026H146.144C146.954 53.9026 147.802 53.9733 148.033 54.0557C148.265 54.1381 148.65 54.6679 148.882 55.2331C149.113 55.81 149.653 56.5636 150.077 56.905C152.622 58.9773 159.139 60.7081 168.972 61.8973C172.095 62.2741 172.751 62.5331 173.252 63.5693C173.792 64.7702 173.406 68.9736 172.712 69.1032C172.442 69.162 171.247 69.2091 170.051 69.2091C167.584 69.2091 167.391 69.1503 167.391 68.3378C167.391 67.3606 164.807 65.0528 162.494 63.9225C158.715 62.1093 151.581 60.5551 144.177 59.9075C140.591 59.5896 134.113 59.4718 130.566 59.6602C124.319 59.9899 118.226 61.026 113.56 62.5214C108.779 64.0638 106.311 65.6415 105.386 67.7609C104.73 69.2209 104.769 69.2209 101.761 69.2327C99.1003 69.2445 99.1003 69.2209 99.2159 65.7828C99.3316 63.0159 99.4087 62.7333 100.064 62.5096C100.45 62.3801 102.879 61.9562 105.463 61.5559C108.008 61.1673 111.093 60.6257 112.288 60.3314C114.949 59.6955 118.149 58.4122 119.19 57.5526C120.116 56.7991 121.504 54.8446 121.504 54.2794C121.504 54.0086 121.658 53.9026 122.005 53.9379C122.314 53.9733 122.429 54.2205 122.314 54.7975ZM128.213 54.5855C128.098 54.9741 128.175 55.4686 128.406 55.7512C129.177 56.5989 129.602 56.4576 129.332 55.445C129.139 54.6797 129.216 54.4442 129.756 54.197C130.373 53.9144 130.566 53.9026 133.997 53.9026C136.003 53.9026 137.892 53.9379 138.239 53.9733C138.702 54.0321 138.856 54.2205 138.856 54.8328C138.856 55.8454 138.355 56.3281 136.889 56.7991C134.961 57.4113 135.694 57.4938 138.355 56.9757C141.015 56.4576 141.362 56.2457 141.748 54.8681C141.902 54.4089 142.172 54.0204 142.365 54.0204C142.558 54.0204 142.712 54.4442 142.712 54.9741C142.712 56.1044 142.095 56.5754 139.974 57.0934C136.003 58.0589 131.645 57.8823 128.56 56.646C127.596 56.2692 127.481 56.1044 127.365 55.0683C127.211 54.0439 127.288 53.9026 127.828 53.9026C128.406 53.9026 128.445 53.9968 128.213 54.5855ZM167.429 55.3744C169.396 55.8925 172.211 56.6578 173.715 57.0699C177.147 58.0001 179.576 58.4946 180.887 58.4946C181.427 58.4946 182.545 58.3886 183.355 58.2473C185.206 57.953 185.668 58.0707 184.203 58.4592C183.201 58.7183 182.776 58.7536 181.003 58.7065C179.884 58.6712 178.959 58.6947 178.959 58.7536C178.959 59.0126 177.841 58.7889 176.722 58.318C176.028 58.0118 175.219 57.7881 174.794 57.7881C173.946 57.7881 169.743 56.7049 169.049 56.3163C168.779 56.175 168.239 56.022 167.815 55.9867C167.429 55.9631 166.851 55.7865 166.581 55.5981C166.195 55.3744 165.501 55.1978 164.306 55.0683C162.725 54.8917 160.835 54.3029 160.835 53.9968C160.835 53.7967 163.766 54.4089 167.429 55.3744ZM176.915 54.456C183.933 56.175 185.476 56.7402 184.974 57.3642C184.666 57.7292 182.699 58.1413 181.273 58.1413C180.116 58.1413 178.111 57.7528 174.717 56.8462C173.329 56.4812 170.707 55.8336 168.856 55.3979C165.733 54.6562 164.306 54.2205 164.306 53.9968C164.306 53.9379 166.658 53.9026 169.512 53.9026H174.679L176.915 54.456ZM185.707 55.3038C194.614 57.5055 198.74 57.953 206.645 57.5997C209.344 57.482 212.545 57.4231 214.974 57.4584C218.329 57.4938 219.216 57.5526 221.375 57.8588C224.961 58.3768 227.506 59.048 230.63 60.2725C232.751 61.1202 233.252 61.3793 232.905 61.5088C232.674 61.603 232.596 61.8031 232.712 61.9562C232.828 62.121 232.789 62.2741 232.596 62.3094C232.404 62.3447 229.936 62.0504 227.121 61.6618C221.414 60.873 218.059 60.5904 215.707 60.7199C213.895 60.8259 213.393 60.9083 212.892 61.2026C212.545 61.4028 212.584 61.4028 214.434 61.1909C216.748 60.9201 218.252 60.9083 220.026 61.132C220.758 61.2262 221.375 61.3204 221.375 61.3439C221.375 61.3675 219.91 61.3557 218.098 61.3322C215.129 61.2968 214.666 61.3204 213.123 61.603C209.692 62.2152 206.375 63.6988 205.45 65.0293C204.486 66.4775 206.607 67.6196 212.082 68.538C215.129 69.0443 215.283 69.268 212.275 68.8677C209.769 68.5262 206.915 67.8551 205.951 67.3841C205.527 67.1722 204.987 66.7601 204.833 66.4775C204.524 65.9948 204.486 65.983 204.447 66.3715C204.332 67.549 206.607 68.4203 211.928 69.2209C215.206 69.7154 216.478 70.0451 215.861 70.2217C215.321 70.3866 208.959 70.4219 206.761 70.2688C202.057 69.9509 198.393 69.2209 196.504 68.2201C194.653 67.2311 193.843 66.1007 193.805 64.4406C193.805 62.9806 193.843 62.8746 195.077 61.9915C196.542 60.9083 196.581 60.8023 195.578 60.9672C194.152 61.1909 193.419 61.0731 189.949 60.0723C188.059 59.5189 186.864 59.1304 187.326 59.201C188.946 59.4365 189.1 59.2363 187.596 58.8125C186.787 58.577 186.555 58.3886 186.401 57.7646C186.285 57.3171 186.362 56.8226 186.632 56.5754C186.941 56.3163 186.979 56.0691 186.787 55.9631C186.594 55.8571 184.974 55.4215 183.201 54.9858C181.427 54.5502 179.884 54.1146 179.807 54.0204C179.576 53.832 180.694 54.0792 185.707 55.3038ZM145.527 60.5904C156.17 61.756 163.612 64.629 165.154 68.1494C165.887 69.8803 164.653 71.8937 161.915 73.3301C160.334 74.1661 160.064 73.9188 161.568 73.0004C163.805 71.6346 164.422 70.9046 164.422 69.5624C164.422 67.6785 163.072 65.8888 160.835 64.8056C158.985 63.9107 159.023 64.2522 160.99 65.5238C163.303 67.0427 163.65 67.6078 163.458 69.4799C163.303 71.0224 163.265 71.0459 161.491 72.3058C157.866 74.8961 154.165 75.944 144.447 77.1567C140.437 77.663 140.013 77.7455 142.134 77.6395C143.483 77.5571 145.373 77.3334 150.424 76.6622C151.658 76.4974 151.697 76.4974 151.195 76.6858C150.386 76.9801 147.339 77.4158 144.216 77.6866C140.784 77.9692 133.111 78.0045 129.216 77.7572C121.504 77.2509 113.483 75.2846 109.936 73.0358C108.162 71.8819 107.622 71.2578 107.237 69.7507C106.735 67.808 107.853 66.3127 111.17 64.523C112.943 63.5575 116.722 62.2388 118.496 61.9562C120.116 61.6972 119.807 61.9091 117.764 62.4625C115.141 63.1689 116.26 63.0865 119.614 62.3212C121.889 61.8149 123.509 61.5676 127.596 61.132C130.373 60.8259 132.686 60.5668 132.686 60.5551C132.686 60.5433 131.761 60.5551 130.681 60.5904C128.753 60.6375 127.134 60.7905 123.625 61.2615C122.237 61.4499 122.159 61.4499 122.661 61.2615C123.779 60.8494 126.979 60.508 131.337 60.3314C131.992 60.3078 134.923 60.296 137.892 60.3196C142.172 60.3431 143.753 60.402 145.527 60.5904ZM105.116 70.2335C106.041 72.0114 108.239 73.6716 111.208 74.8372C115.064 76.3796 122.468 77.875 128.445 78.3342C138.586 79.0995 149.614 78.2753 156.941 76.203C162.532 74.6253 166.35 72.5059 167.275 70.5043L167.584 69.8567L170.398 69.8332L173.175 69.8214V73.0358C173.175 75.8027 173.098 76.2854 172.558 76.4385C172.095 76.5916 170.977 76.6269 166.774 76.6269H161.607L159.37 77.2509C155.167 78.4401 149.884 79.3232 144.447 79.7588C140.437 80.0885 132.455 80.0532 128.059 79.7C121.388 79.1584 115.951 78.24 112.751 77.1214L111.555 76.6858L106.967 76.674C100.797 76.6622 100.797 76.6622 99.91 76.3914C99.1774 76.1677 99.1388 76.0029 99.1388 73.0593C99.1388 71.352 99.2545 69.9156 99.4087 69.8803C99.5244 69.8332 100.835 69.7978 102.262 69.7978H104.884L105.116 70.2335Z" fill="#00639A"/>
<g filter="url(#filter0_di_6_93)">
<path d="M10 49.7352V36.1765H17.2074V41.4376H19.2376L26.3096 36.1765H34.769L25.5821 42.9029L34.8705 49.7352H26.3096L19.8974 44.9243H17.2074V49.7352H10Z" fill="#00639A"/>
<path d="M36.3932 49.7352L36.3594 46.7516H37.2222C37.8313 46.7516 38.3558 46.6751 38.7957 46.5221C39.2468 46.3632 39.619 46.1072 39.9123 45.7541C40.2055 45.401 40.4368 44.9332 40.606 44.3506C40.7751 43.7621 40.8879 43.0383 40.9443 42.1791L41.3673 36.1765H61.1284V49.7352H54.2594V39.1337H47.8472L47.4411 43.2736C47.3396 44.4094 47.0745 45.3863 46.6459 46.2043C46.2286 47.0223 45.6477 47.6931 44.9033 48.2169C44.1589 48.7348 43.2622 49.1173 42.2132 49.3644C41.1643 49.6116 39.9461 49.7352 38.5588 49.7352H36.3932Z" fill="#00639A"/>
<path d="M81.0797 41.5347V44.5183H66.9865V41.5347H81.0797ZM72.5527 36.1765V49.7352H65.3623V36.1765H72.5527ZM88.8623 50C86.2907 50 84.0687 49.6999 82.1964 49.0996C80.324 48.4994 78.8803 47.6696 77.8652 46.6103C76.8613 45.5511 76.3594 44.3359 76.3594 42.9647C76.3594 41.5935 76.8613 40.3842 77.8652 39.3367C78.8803 38.2892 80.324 37.4712 82.1964 36.8827C84.0687 36.2942 86.2907 36 88.8623 36C91.4453 36 93.6673 36.2942 95.5283 36.8827C97.4007 37.4712 98.8388 38.2892 99.8426 39.3367C100.858 40.3842 101.365 41.5935 101.365 42.9647C101.365 44.3359 100.858 45.5511 99.8426 46.6103C98.8388 47.6696 97.4007 48.4994 95.5283 49.0996C93.6673 49.6999 91.4453 50 88.8623 50ZM88.8623 46.9634C90.2046 46.9634 91.2874 46.7928 92.1107 46.4515C92.9341 46.1042 93.5376 45.6305 93.921 45.0303C94.3045 44.4241 94.4963 43.7356 94.4963 42.9647C94.4963 42.1938 94.3045 41.5111 93.921 40.9168C93.5376 40.3165 92.9341 39.8457 92.1107 39.5044C91.2874 39.1631 90.2046 38.9924 88.8623 38.9924C87.5314 38.9924 86.4486 39.1631 85.614 39.5044C84.7793 39.8398 84.1646 40.3047 83.7698 40.8991C83.3863 41.4935 83.1946 42.182 83.1946 42.9647C83.1946 43.7415 83.3863 44.43 83.7698 45.0303C84.1646 45.6305 84.7793 46.1042 85.614 46.4515C86.4486 46.7928 87.5314 46.9634 88.8623 46.9634Z" fill="#00639A"/>
<path d="M128.816 36.1765V49.7352H121.981V36.1765H128.816ZM125.483 42.1261V45.0921C124.93 45.2215 124.242 45.3451 123.419 45.4628C122.595 45.5746 121.733 45.6658 120.83 45.7364C119.928 45.8071 119.082 45.8424 118.292 45.8424C114.559 45.8424 111.621 45.4422 109.478 44.6419C107.335 43.8356 106.263 42.5498 106.263 40.7844V36.1589H113.065V40.7844C113.065 41.3081 113.234 41.723 113.572 42.029C113.922 42.335 114.474 42.5557 115.23 42.691C115.997 42.8205 117.018 42.8852 118.292 42.8852C119.477 42.8852 120.639 42.8205 121.778 42.691C122.917 42.5616 124.152 42.3733 125.483 42.1261Z" fill="#00639A"/>
<path d="M150.603 40.8197V43.8033H134.801V40.8197H150.603Z" fill="#00639A"/>
<path d="M164.155 49.9912C162.497 49.9912 161.019 49.8411 159.722 49.541C158.425 49.235 157.399 48.7848 156.643 48.1904C155.899 47.5902 155.526 46.8428 155.526 45.9483C155.526 45.195 155.791 44.5624 156.321 44.0504C156.852 43.5385 157.573 43.1265 158.487 42.8146C159.401 42.5027 160.438 42.2673 161.6 42.1084C162.773 41.9496 164.003 41.8377 165.288 41.773C166.8 41.6906 168.018 41.6141 168.943 41.5435C169.868 41.467 170.539 41.3552 170.956 41.2081C171.374 41.061 171.582 40.8432 171.582 40.5549V40.5019C171.582 39.9428 171.244 39.5103 170.567 39.2043C169.902 38.8983 168.954 38.7453 167.725 38.7453C166.428 38.7453 165.396 38.8953 164.629 39.1955C163.862 39.4897 163.354 39.8604 163.106 40.3077L156.44 40.0252C156.778 39.2013 157.444 38.4893 158.436 37.889C159.429 37.2829 160.709 36.818 162.277 36.4943C163.856 36.1648 165.683 36 167.759 36C169.202 36 170.584 36.0883 171.904 36.2648C173.235 36.4414 174.413 36.715 175.44 37.0857C176.477 37.4565 177.295 37.9332 177.893 38.5158C178.491 39.0925 178.79 39.7839 178.79 40.5902V49.7352H171.954V47.855H171.751C171.334 48.2787 170.776 48.6524 170.076 48.976C169.377 49.2938 168.537 49.5439 167.556 49.7264C166.574 49.9029 165.441 49.9912 164.155 49.9912ZM166.219 47.396C167.279 47.396 168.215 47.2871 169.027 47.0694C169.84 46.8457 170.477 46.5456 170.939 46.169C171.402 45.7923 171.633 45.3657 171.633 44.889V43.4502C171.407 43.5267 171.097 43.5973 170.702 43.662C170.319 43.7209 169.885 43.7768 169.4 43.8298C168.915 43.8768 168.43 43.921 167.945 43.9622C167.46 43.9975 167.02 44.0298 166.625 44.0593C165.779 44.124 165.04 44.227 164.409 44.3682C163.777 44.5095 163.286 44.7007 162.937 44.942C162.587 45.1774 162.412 45.4716 162.412 45.8247C162.412 46.3367 162.768 46.728 163.478 46.9987C164.2 47.2636 165.114 47.396 166.219 47.396Z" fill="#00639A"/>
<path d="M184.381 49.7352V36.1765H195.463C198.666 36.1765 201.198 36.4943 203.059 37.1299C204.92 37.7654 205.851 38.6688 205.851 39.8398C205.851 40.5755 205.327 41.1875 204.278 41.6759C203.229 42.1644 201.774 42.4939 199.913 42.6646C201.469 42.7234 202.794 42.9088 203.888 43.2207C204.994 43.5267 205.834 43.9239 206.409 44.4124C206.996 44.9008 207.289 45.4422 207.289 46.0366C207.289 46.8075 206.894 47.4695 206.105 48.0227C205.327 48.5759 204.182 48.9996 202.67 49.2938C201.17 49.5881 199.337 49.7352 197.172 49.7352H184.381ZM191.098 46.9193H197.172C198.176 46.9193 198.959 46.7957 199.523 46.5485C200.099 46.2955 200.386 45.9512 200.386 45.5158C200.386 45.0332 200.099 44.6536 199.523 44.377C198.959 44.1005 198.176 43.9622 197.172 43.9622H191.098V46.9193ZM191.098 41.7554H195.615C196.337 41.7554 196.952 41.7024 197.459 41.5965C197.978 41.4847 198.373 41.3258 198.644 41.1198C198.926 40.9138 199.067 40.6696 199.067 40.3871C199.067 39.9693 198.745 39.6427 198.102 39.4073C197.459 39.1719 196.58 39.0542 195.463 39.0542H191.098V41.7554Z" fill="#00639A"/>
<path d="M210.478 39.1337V36.1765H234.029V39.1337H225.654V49.7352H218.785V39.1337H210.478Z" fill="#00639A"/>
<path d="M249.209 50C246.581 50 244.309 49.7087 242.391 49.1261C240.485 48.5376 239.013 47.7196 237.975 46.6721C236.938 45.6187 236.419 44.3976 236.419 43.0088C236.419 41.6082 236.938 40.3842 237.975 39.3367C239.013 38.2833 240.485 37.4653 242.391 36.8827C244.309 36.2942 246.581 36 249.209 36C251.837 36 254.105 36.2942 256.011 36.8827C257.928 37.4653 259.406 38.2833 260.443 39.3367C261.481 40.3842 262 41.6082 262 43.0088C262 44.3976 261.481 45.6187 260.443 46.6721C259.406 47.7196 257.928 48.5376 256.011 49.1261C254.105 49.7087 251.837 50 249.209 50ZM249.243 47.087C250.439 47.087 251.437 46.9105 252.238 46.5574C253.039 46.1984 253.642 45.71 254.048 45.0921C254.466 44.4741 254.674 43.7709 254.674 42.9823C254.674 42.1938 254.466 41.4905 254.048 40.8726C253.642 40.2547 253.039 39.7663 252.238 39.4073C251.437 39.0483 250.439 38.8689 249.243 38.8689C248.036 38.8689 247.021 39.0483 246.198 39.4073C245.386 39.7663 244.771 40.2547 244.354 40.8726C243.948 41.4905 243.745 42.1938 243.745 42.9823C243.745 43.7709 243.948 44.4741 244.354 45.0921C244.771 45.71 245.386 46.1984 246.198 46.5574C247.021 46.9105 248.036 47.087 249.243 47.087Z" fill="#00639A"/>
</g>
<defs>
<filter id="filter0_di_6_93" x="6" y="36" width="260" height="22" filterUnits="userSpaceOnUse" color-interpolation-filters="sRGB">
<feFlood flood-opacity="0" result="BackgroundImageFix"/>
<feColorMatrix in="SourceAlpha" type="matrix" values="0 0 0 0 0 0 0 0 0 0 0 0 0 0 0 0 0 0 127 0" result="hardAlpha"/>
<feOffset dy="4"/>
<feGaussianBlur stdDeviation="2"/>
<feComposite in2="hardAlpha" operator="out"/>
<feColorMatrix type="matrix" values="0 0 0 0 0 0 0 0 0 0.388235 0 0 0 0 0.603922 0 0 0 0.25 0"/>
<feBlend mode="normal" in2="BackgroundImageFix" result="effect1_dropShadow_6_93"/>
<feBlend mode="normal" in="SourceGraphic" in2="effect1_dropShadow_6_93" result="shape"/>
<feColorMatrix in="SourceAlpha" type="matrix" values="0 0 0 0 0 0 0 0 0 0 0 0 0 0 0 0 0 0 127 0" result="hardAlpha"/>
<feOffset dy="4"/>
<feGaussianBlur stdDeviation="2"/>
<feComposite in2="hardAlpha" operator="arithmetic" k2="-1" k3="1"/>
<feColorMatrix type="matrix" values="0 0 0 0 0 0 0 0 0 0.388235 0 0 0 0 0.603922 0 0 0 0.25 0"/>
<feBlend mode="normal" in2="shape" result="effect2_innerShadow_6_93"/>
</filter>
</defs>
</svg>
