<svg width="271" height="87" viewBox="0 0 271 87" fill="none" xmlns="http://www.w3.org/2000/svg">
<path d="M124.355 0.455048C118.416 0.580666 112.17 0.794215 106.617 1.05801C96.437 1.54793 91.8098 2.01272 89.9203 2.75387L88.9949 3.1056L88.7635 14.4615C88.6093 20.7173 88.6093 27.1741 88.7635 28.8197L88.9949 31.8094L87.7224 31.5708C87.0283 31.4451 84.5604 30.7919 82.2082 30.1387C79.856 29.4855 76.1928 28.468 74.0334 27.8901C68.5964 26.4204 67.3625 26.0184 65.8972 25.2898C64.1234 24.3979 63.1979 23.393 62.4653 21.6469C61.347 18.921 60.6915 17.9035 59.5733 17.1372C57.491 15.7177 53.4422 14.7379 47.6195 14.2228C43.5707 13.8585 34.6247 13.9214 27.6452 14.361C21.6298 14.7253 20.7044 14.8509 20.3573 15.3032C19.8946 15.9313 20.9357 16.1574 31.1928 17.602C39.3676 18.7577 40.7943 19.034 41.874 19.7375C43.1851 20.5666 43.0309 21.4585 41.3728 22.7021C39.0591 24.4105 36.6298 25.2898 33.4679 25.5536C30.4602 25.8049 28.3779 25.6039 20.7044 24.3477C12.9537 23.0789 10.2159 22.8403 9.17481 23.2925C8.018 23.8201 8.4036 24.1216 12.8766 26.4706C18.4293 29.3976 26.4499 31.5079 32.8123 31.7215C34.5861 31.7843 36.5141 31.7089 41.1414 31.4075C47.8509 30.9804 52.9409 30.8924 55.1388 31.1939C57.491 31.5205 67.2854 33.7942 67.2854 34.0078C67.2854 34.058 54.0591 34.0957 37.9023 34.0957C10.7943 34.0957 8.36504 34.1083 7.01543 34.3092C4.39332 34.6987 2.58098 35.2639 1.34705 36.0805L0.151672 36.8593L0.267354 46.1551L0.383035 55.4508L1.23136 55.9659C2.31106 56.6317 4.08483 57.2095 6.12854 57.5612L7.70951 57.8376L46.7712 57.8753L85.8329 57.9004L85.4087 58.1642C84.7918 58.5159 79.5861 59.7596 76.2699 60.3248C70.4087 61.3172 68.365 61.4303 61.6555 61.1037C54.599 60.7519 50.5887 60.8901 46.4242 61.6187C39.7532 62.7744 29.0334 68.0755 31.4242 69.0176C32.3111 69.3568 33.6992 69.2186 40.2159 68.1258C47.5424 66.8947 50.8972 66.4425 52.8638 66.4425C57.0668 66.4425 61.7712 68.2891 62.1954 70.098C62.3882 71.0778 61.8869 71.6808 60.4216 72.1707C59.8432 72.3591 55.7172 73.0877 51.2057 73.7911C42.5296 75.173 46.5398 74.884 47.6195 75.4242C49.5861 76.404 59.3033 77.5471 66.09 76.9442C72.0668 76.4166 76.4627 75.2734 78.9692 73.6027C80.6658 72.4722 81.3985 71.5803 81.9383 69.8467C83.018 66.5681 85.8715 65.4878 110.627 59.0058L114.83 57.9004H117.144H119.458L119.188 58.9179C118.571 61.1162 116.99 62.2971 112.787 63.6914C110.203 64.5331 109.278 64.7466 104.535 65.5129C101.141 66.0656 98.8663 66.5053 98.365 66.7314C97.5553 67.0831 97.5553 67.1962 97.4396 74.4569L97.3625 81.8182L98.6735 82.5091C99.3676 82.8985 100.1 83.3382 100.216 83.4889C100.486 83.7653 100.679 83.7778 105.113 83.7778H109.74L109.972 83.401C110.087 83.1874 110.357 83.0241 110.55 83.0241C110.743 83.0241 111.938 83.3256 113.172 83.6899C116.219 84.5818 118.918 85.0843 123.391 85.6119C128.751 86.2274 133.224 86.4535 138.622 86.3781C145.794 86.2651 149.882 85.7877 157.362 84.1547C162.105 83.112 162.53 83.0492 162.53 83.3256C162.53 83.4261 162.954 83.6145 163.455 83.715C164.226 83.8783 164.997 83.9034 168.159 83.8155C171.9 83.715 171.9 83.715 172.285 83.3382C172.478 83.1246 173.249 82.7603 173.943 82.5216L175.255 82.0694V74.5825V67.0831L173.828 66.6937C173.018 66.4801 170.049 65.9149 167.234 65.4375C161.219 64.42 159.136 63.9427 156.206 62.9251C153.622 62.0081 151.925 60.8901 151.347 59.7219C151.116 59.232 150.846 58.7169 150.73 58.5662C150.499 58.1642 151.54 57.9004 153.468 57.9004C155.434 57.9004 157.054 58.2521 165.422 60.551C180.923 64.7843 181.501 64.9602 183.969 66.141C186.707 67.46 187.671 68.3267 188.751 70.4246C189.175 71.2662 189.869 72.3214 190.293 72.7611C192.26 74.8338 197.581 76.3663 204.869 76.9567C208.571 77.2582 217.362 77.2582 220.756 76.9567C224.111 76.6678 226.617 76.2407 227.311 75.8262C227.851 75.5247 227.812 75.4744 226.925 75.173C226.386 74.9845 222.298 74.2434 217.825 73.5399C210.614 72.3842 209.573 72.1832 208.764 71.7561C207.452 71.0778 207.337 69.9849 208.416 69.0553C209.419 68.176 212.388 67.0706 214.702 66.7063C217.748 66.2289 218.789 66.3168 227.003 67.6861C235.216 69.0679 237.799 69.3694 238.764 69.0428C239.573 68.779 239.149 68.0629 237.568 67.058C235.447 65.7013 230.589 63.3899 228.506 62.7618C223.532 61.2419 214.278 60.551 206.488 61.1037C202.941 61.3549 200.319 61.3298 197.774 61.0283C195.075 60.7017 186.9 58.943 185.473 58.3778L184.393 57.9632L223.494 57.9004L262.594 57.8376L264.445 57.5361C266.527 57.2095 267.722 56.7447 269.149 55.7398L270.152 55.0363L270.036 45.8285L269.92 36.6081L268.879 36.0302C268.301 35.7162 267.105 35.2388 266.219 34.9876C263.018 34.0329 265.216 34.0957 232.208 34.0957C215.936 34.0957 202.671 34.058 202.71 34.0078C202.864 33.8821 210.537 32.0732 213.005 31.5833C217.015 30.8045 220.64 30.7166 227.157 31.2567C238.725 32.2114 243.969 31.6461 252.645 28.4805C257.311 26.7847 261.63 24.4984 261.63 23.7196C261.63 22.7523 258.584 22.8905 250.409 24.2095C243.044 25.3903 240.422 25.7421 238.879 25.7421C235.177 25.7421 231.398 24.5989 228.506 22.6016C225.152 20.2902 227.234 19.1848 237.722 17.7653C245.782 16.6724 249.252 16.0569 250.062 15.567C250.987 15.0017 249.753 14.8133 241.578 14.2857C238.069 14.0595 235.833 14.0093 230.974 14.0093C225.344 14.0093 224.535 14.0344 221.681 14.3485C214.509 15.1273 210.19 16.6473 208.841 18.8456C208.648 19.2225 208.185 20.3279 207.838 21.3077C207.221 23.1543 206.566 24.0839 205.255 24.913C204.098 25.6541 197.774 27.6263 190.447 29.5357C186.823 30.4779 183.661 31.3446 183.391 31.4451C181.848 32.0481 181.848 31.9602 181.656 24.1969C181.54 20.1143 181.463 16.5342 181.501 16.2579C181.501 15.9815 181.501 15.1022 181.501 14.3108C181.463 13.5194 181.463 12.64 181.501 12.3637C181.501 12.0873 181.501 11.1954 181.501 10.3789C181.501 9.57496 181.501 8.72075 181.501 8.49464C181.694 3.95981 181.656 3.59551 180.653 3.0051C178.918 1.98759 175.37 1.61074 160.987 0.944962C157.285 0.769096 151.733 0.568108 148.648 0.492737C143.596 0.37968 128.712 0.354553 124.355 0.455048ZM149.149 1.24644C162.414 1.51024 172.17 2.03784 176.411 2.72874C179.419 3.21866 179.882 3.55782 179.882 5.41698C179.882 6.22094 179.728 6.91184 179.535 6.94952C179.342 6.98721 177.491 6.83647 175.37 6.59779C170.126 5.99482 167.697 5.81896 162.144 5.59285C147.992 5.015 123.584 4.97732 109.509 5.51748C104.265 5.71847 100.64 5.98227 95.473 6.50986L90.8072 6.99977V5.07781V3.15585L92.4653 2.9423C98.7892 2.10065 108.584 1.51025 119.92 1.25901C126.823 1.10827 141.591 1.10826 149.149 1.24644ZM154.817 7.02489C161.643 7.1882 164.805 7.33895 170.512 7.77861C178.262 8.38158 179.496 8.68306 179.805 10.0397C179.92 10.6553 179.843 10.9191 179.535 10.9191C179.303 10.9191 178.108 10.7809 176.874 10.6176C168.121 9.42421 153.776 8.9343 131.874 9.08504C110.666 9.22323 101.45 9.57495 94.6632 10.4794C90.4987 11.0321 90.8072 11.0824 90.8072 9.92669V8.90917L92.4267 8.64538C100.524 7.30126 114.869 6.73597 138.237 6.84903C144.483 6.87415 151.964 6.94952 154.817 7.02489ZM148.455 10.7935C157.517 10.9693 164.38 11.2457 169.123 11.61C175.602 12.125 177.8 12.4014 178.956 12.841C179.843 13.1802 179.959 13.3184 179.805 13.959C179.728 14.361 179.535 14.7253 179.38 14.763C179.226 14.8132 178.108 14.7002 176.874 14.5243C169.046 13.3812 144.29 12.6024 125.704 12.9164C110.126 13.1802 98.2879 13.8209 91.4627 14.7504C90.8458 14.8384 90.7686 14.763 90.8843 13.8083L91 12.7657L93.1208 12.4139C97.401 11.723 108.776 11.0196 119.342 10.806C126.938 10.6553 140.897 10.6553 148.455 10.7935ZM47.0411 14.8761C52.054 15.3032 55.7558 16.2327 57.6838 17.5392C59.1105 18.519 59.8046 19.5491 60.5373 21.873C61.2699 24.1341 61.8483 24.7748 63.9692 25.6918C66.09 26.6214 66.8612 26.8601 76.5398 29.5232C91.1157 33.5304 92.6581 33.9701 92.5039 34.0203C92.2339 34.1083 89.2262 33.3922 86.5656 32.6008C83.2108 31.5959 74.2262 29.184 71.7969 28.6438C69.599 28.1539 67.8638 27.9781 66.3985 28.0786C65.0874 28.1665 65.2416 28.2544 66.9769 28.38L68.2494 28.4805L66.6298 28.4931C65.3188 28.5057 64.8946 28.5685 64.2391 28.87C63.2365 29.3347 61.2314 29.4729 59.6118 29.1966C58.1851 28.9579 57.2596 28.9328 57.9537 29.1589C58.9177 29.4729 58.3393 29.5106 56.7969 29.2343C55.91 29.0709 54.7532 28.7067 54.1748 28.4177L53.1722 27.9027L51.2442 28.2796C46.6555 29.2217 43.1851 29.6614 39.0977 29.8247C34.4319 30.0131 28.455 29.2845 24.5219 28.0283C22.671 27.4379 20.6273 26.4706 20.6273 26.1817C20.6273 26.0435 22.5167 26.1315 24.5219 26.345C25.6787 26.4832 27.1054 26.6214 27.7224 26.6716C28.6864 26.747 28.8021 26.7344 28.3779 26.5837C28.1465 26.4832 27.4139 26.3325 26.7584 26.2445C25.0617 26.0059 25.6015 25.9807 27.7609 26.1817C30.653 26.4706 33.2751 26.4204 35.5887 26.0435C39.4447 25.4155 43.6478 23.5186 44.5347 21.9609C44.9203 21.3328 44.4961 19.4988 43.9563 19.1973C43.8021 19.1345 43.9177 19.0843 44.1491 19.0843C44.3805 19.0843 44.6504 19.1596 44.7275 19.235C45.5373 19.9887 45.8072 20.1395 45.9614 19.9259C46.2314 19.5867 44.3033 18.3934 42.9152 18.0165C41.6041 17.6522 37.3239 16.9236 33.3522 16.3835C29.9203 15.9187 29.7661 15.8684 30.5373 15.479L31.1542 15.165L28.3008 15.2655C26.7198 15.3032 25.4087 15.366 25.3316 15.3785C25.2545 15.3911 28.8792 16.0192 33.3522 16.7603C42.1825 18.2426 42.9537 18.3808 42.491 18.5316C42.3368 18.5944 41.874 18.5692 41.527 18.4813C41.18 18.3934 36.8226 17.6648 31.8483 16.8608C21.7455 15.2152 21.9769 15.3283 28.108 14.9891C35.8972 14.5369 42.6067 14.4992 47.0411 14.8761ZM143.057 14.6876C161.064 14.9389 168.815 15.2655 175.139 16.0569C180.152 16.6975 179.689 15.8308 179.805 24.2849C179.843 28.2921 179.805 31.7215 179.689 31.8848C179.496 32.1486 179.303 32.1737 177.877 32.0984C175.563 31.9727 174.175 31.7089 171.206 30.7668C160.216 27.3123 131.874 26.3325 110.28 28.6438C105.769 29.1338 101.257 30.0131 98.2494 30.9929C95.7429 31.822 93.9306 32.1486 91.964 32.1486H90.8072V24.4356V16.7101L93.2365 16.3332C102.452 14.9137 119.149 14.361 143.057 14.6876ZM241.193 14.964C243.853 15.1022 246.283 15.2655 246.591 15.3157C247.015 15.3911 244.779 15.8056 238.841 16.7478C234.29 17.4638 229.779 18.2552 228.815 18.4813C226.308 19.1094 226 19.1596 226.463 18.8833C227.195 18.4311 228.699 18.0919 232.131 17.5517C234.059 17.2502 237.761 16.6473 240.422 16.2076L245.242 15.4037L241.81 15.2278C239.92 15.1399 238.301 15.0896 238.224 15.1147C238.147 15.1399 238.609 15.2278 239.265 15.3157C239.882 15.4037 240.422 15.5167 240.422 15.567C240.422 15.7177 238.841 16.0192 233.134 16.9739C227.003 17.9914 225.383 18.4687 224.458 19.4863C223.725 20.3028 223.725 20.3405 224.188 20.3405C224.38 20.3405 224.65 20.152 224.766 19.9134C224.92 19.6747 225.306 19.4109 225.653 19.323C226.193 19.1722 226.231 19.1848 226.039 19.3983C225.884 19.5365 225.614 19.9259 225.422 20.2651C224.689 21.5715 227.195 23.8075 230.859 25.0637C233.712 26.0561 235.293 26.2948 238.879 26.3073C241.347 26.3073 242.195 26.2445 244.548 25.8928C247.787 25.4154 248.982 25.3652 246.784 25.8049C245.396 26.0812 244.355 26.2194 239.265 26.7344C237.992 26.8601 238.031 26.8601 239.882 26.8098C240.961 26.7721 243.121 26.5963 244.702 26.433C247.555 26.1189 249.676 26.031 249.676 26.232C249.676 26.4581 246.283 27.8273 244.316 28.4052C239.38 29.8498 233.674 30.189 226.54 29.4855C223.532 29.184 222.414 29.0081 219.483 28.3549C218.211 28.0786 217.17 27.8776 217.131 27.9027C215.704 28.669 213.661 29.2719 211.887 29.4478L210.923 29.5483L211.694 29.2594L212.465 28.9705L211.694 29.0709C211.27 29.1338 210.229 29.1966 209.342 29.2343C208.069 29.2719 207.568 29.2217 206.566 28.9453C205.871 28.7569 204.869 28.5685 204.29 28.5057L203.211 28.4052L204.175 28.2796L205.139 28.1539L204.059 28.066C203.481 28.0158 202.44 28.0032 201.823 28.0534C200.203 28.1539 191.219 30.4151 182.735 32.8521C179.612 33.744 178.031 34.1083 177.722 33.9952C177.452 33.9073 182.967 32.3245 188.365 30.9427C196.193 28.9453 204.175 26.6214 205.949 25.8426C208.686 24.6115 209.111 24.1467 210.152 20.8053C210.769 18.833 211.617 17.8909 213.468 16.999C217.979 14.8384 226.733 14.1977 241.193 14.964ZM17.3111 24.6241C20.2802 25.114 22.9409 25.5788 23.1337 25.6416C23.6735 25.8049 21.6298 25.5159 16.6555 24.7371C14.3805 24.3728 12.4139 24.109 12.2596 24.1593C11.874 24.2723 13.0694 25.026 15.5758 26.2445C18.4679 27.6515 18.6221 27.7394 17.5424 27.4379C15.7686 26.9354 10.9871 24.3226 10.9871 23.8452C10.9871 23.6317 11.9512 23.7447 17.3111 24.6241ZM69.1748 29.2468C69.6375 29.3347 71.2571 29.7493 72.7224 30.1764C74.2262 30.6035 77.8123 31.6084 80.7044 32.3998C83.5964 33.1912 86.0257 33.9198 86.1028 33.9952C86.2956 34.1962 77.5424 34.2213 76 34.0329C75.4602 33.9701 73.7635 33.5555 72.2211 33.1159C70.6787 32.6888 68.4422 32.0858 67.2854 31.7843C63.3908 30.7919 62.5039 30.2266 63.8149 29.5357C65.0103 28.8951 66.6298 28.8071 69.1748 29.2468ZM205.216 29.1212C206.643 29.4101 207.183 29.9754 206.488 30.5281C206.219 30.7417 203.558 31.5708 200.087 32.5255L194.188 34.1711L188.866 34.1334L183.545 34.0957L190.679 32.0984C197.658 30.1387 202.71 28.8825 203.558 28.8825C203.789 28.8825 204.522 28.9956 205.216 29.1212ZM125.242 29.5357C125.473 29.787 124.548 33.1661 124.162 33.4676C124.085 33.5304 124.008 32.6134 124.008 31.42C123.969 29.6614 124.085 29.2594 124.509 29.2594C124.779 29.2594 125.126 29.385 125.242 29.5357ZM146.681 31.1688C147.26 33.5304 147.414 33.9073 147.877 33.9073C148.108 33.9073 148.262 33.9701 148.262 34.0454C148.262 34.1208 147.607 34.1585 146.643 34.1334L144.985 34.0957L144.869 31.6713C144.792 29.385 144.83 29.2594 145.486 29.2594C146.141 29.2594 146.257 29.4478 146.681 31.1688ZM128.519 31.4326L128.635 33.0279H131.219C133.995 33.0279 135.884 33.2792 136.694 33.7691C137.157 34.0706 136.733 34.1208 135.576 33.8821C135.036 33.7691 134.535 33.7816 133.262 33.945C132.105 34.1083 131.103 34.1334 129.56 34.0831L127.44 33.9952V31.8722C127.44 30.2266 127.555 29.7493 127.941 29.787C128.249 29.8247 128.442 30.302 128.519 31.4326ZM142.594 31.4703L142.324 32.9651L142.015 31.5959C141.784 30.6161 141.823 30.189 142.131 30.0633C142.401 29.9628 142.671 29.9 142.748 29.9377C142.825 29.9628 142.748 30.6537 142.594 31.4703ZM119.265 32.425L119.149 34.0957L108.738 34.1334C97.4782 34.1711 95.9743 34.1083 94.7018 33.5681C93.545 33.1033 93.6992 33.0279 95.473 33.0279C96.5527 33.0279 98.3265 32.8395 100.794 32.4752C105.499 31.7717 110.936 31.1813 114.676 30.9678C119.843 30.6537 119.38 30.503 119.265 32.425ZM154.817 30.9427C158.481 31.1562 163.686 31.7215 168.082 32.3873C170.165 32.7013 172.401 32.94 173.674 32.9777C177.028 33.1033 177.144 33.1787 175.062 33.7063L173.211 34.1585H162.375C154.432 34.1585 151.386 34.1208 151.039 34.0078C150.73 33.9073 150.576 33.342 150.576 32.3119C150.576 30.5407 150.152 30.6789 154.817 30.9427ZM207.568 31.1688C207.26 31.3321 205.524 31.8597 203.751 32.3496C201.861 32.8772 200.512 33.342 200.512 33.4802C200.512 33.6435 200.203 33.7188 199.432 33.744C198.815 33.7565 198.082 33.8319 197.774 33.9198C197.465 33.9952 197.118 34.0454 197.041 34.0078C196.771 33.9198 207.414 30.8924 207.992 30.8924C208.069 30.8924 207.877 31.018 207.568 31.1688ZM263.596 35.6031C266.835 36.3568 266.643 35.6659 266.643 46.0295C266.643 56.393 266.835 55.7398 263.558 56.4558L261.823 56.8326L135.769 56.8703L9.71465 56.8955L7.70951 56.594C5.62725 56.2799 4.47044 55.8654 3.73779 55.1494C3.39075 54.8479 3.27507 52.4234 3.27507 46.1551V37.2362L4.20052 36.6081C5.16453 35.9297 6.39846 35.5026 7.90232 35.3016C8.55784 35.2263 51.7841 35.1886 135.422 35.2011L261.938 35.2263L263.596 35.6031ZM90.8072 58.2898C90.8072 58.3275 89.7661 58.5536 88.4936 58.7672C84.7532 59.4204 82.7095 60.1113 82.7095 60.7394C82.7095 60.9152 82.7866 60.9278 83.3265 60.7771C83.9049 60.6263 83.9435 60.6389 83.7121 60.8901C83.018 61.581 86.2571 62.7995 88.7635 62.7995C90.3059 62.7995 93.6221 62.0709 97.7481 60.8524C103.764 59.0561 108.622 57.8878 109.239 58.0888C109.702 58.227 108.661 58.5913 106.733 58.9682C105.653 59.1692 104.342 59.546 103.764 59.7972C103.224 60.061 101.874 60.463 100.756 60.7017C99.6375 60.9404 98.365 61.267 97.9409 61.4177C97.054 61.7318 93.2365 62.699 92.0411 62.9126C91.617 62.988 90.3059 63.0508 89.1491 63.0508C87.2211 63.0508 86.9126 63.0131 85.4473 62.5483C84.599 62.2719 83.7121 62.0458 83.5578 62.0458C83.4036 62.0458 83.2494 62.2468 83.2494 62.4855C83.2494 62.8498 82.9023 63.0508 81.1671 63.616C80.0103 63.9929 79.2776 64.3069 79.5476 64.3069C79.7789 64.3069 80.5887 64.106 81.3213 63.8673C82.0926 63.6286 82.8638 63.4276 83.0951 63.4276C83.7507 63.4276 81.9383 64.1436 80.3959 64.4954C79.6247 64.6712 78.5064 64.9853 77.8895 65.1863C76.7327 65.5883 75.8072 65.6511 74.5733 65.4375C73.5321 65.2491 73.6093 65.5003 74.9203 66.5304C75.9229 67.3344 75.9614 67.4851 75.9229 69.3317C75.9229 71.015 75.7686 71.3918 75.036 72.0827C73.5321 73.4897 71.2956 74.3062 66.8997 75.0599C64.856 75.4116 64.5476 75.4242 59.6889 75.4242C56.9126 75.4242 54.5219 75.3865 54.3676 75.3363C53.7506 75.1478 55.1003 74.7333 57.9152 74.2559C63.3136 73.3264 64.5476 72.9244 65.5887 71.7436C66.437 70.7889 66.0514 70.6632 65.0103 71.5551C63.892 72.5224 61.8098 73.2007 58.0309 73.7786C53.7121 74.4569 53.0566 74.3187 57.2211 73.6153C61.1542 72.9369 63.2365 72.3717 64.0463 71.7561C64.7404 71.2285 64.7404 69.7839 64.0463 69.0302C63.3136 68.2639 59.8432 66.7816 57.6838 66.3043C54.0206 65.5129 50.7815 65.6259 44.072 66.7439C39.4447 67.5353 37.2082 67.7991 38.9434 67.372C40.4087 67.0077 47.8123 65.8395 49.8946 65.6385C52.6324 65.3747 53.982 65.3873 56.1028 65.6888L56.5656 65.5631C55.8715 65.3621 54.8303 65.1737 54.2519 65.1612C50.3188 65.0983 48.0823 65.2993 42.144 66.2666C39.8689 66.6435 37.8252 66.9449 37.6324 66.9449C37.4396 66.9449 37.2082 66.7063 37.1311 66.4048C36.9769 65.94 37.1697 65.7767 38.8663 64.9602C42.2982 63.3271 46.617 62.2468 51.2828 61.8448C53.9434 61.6062 59.0334 61.6313 63.1208 61.8825C70.1774 62.3222 74.8046 61.782 84.4062 59.345C88.5707 58.3024 90.2674 57.9381 90.4987 58.0511C90.653 58.1391 90.8072 58.2521 90.8072 58.2898ZM105.653 58.1642C104.342 58.629 93.892 61.468 91.6941 61.9453C89.1105 62.5232 88.1465 62.5357 86.3728 62.0333C84.5604 61.5057 84.5219 60.9781 86.2956 60.3877C88.0308 59.8224 94.3162 58.114 95.0489 58.0009C95.3573 57.9507 98.0566 57.913 100.987 57.913L106.347 57.9004L105.653 58.1642ZM122.465 58.8551C122.311 59.9982 121.193 61.3549 119.65 62.385C118.301 63.2518 114.252 64.7843 111.861 65.3245C110.473 65.6259 110.473 65.6385 110.473 66.5304C110.473 67.0329 110.627 67.4474 110.781 67.4474C110.936 67.4474 112.093 67.1082 113.365 66.6811C115.987 65.8269 118.532 65.2365 122.35 64.6336C125.203 64.1688 129.715 63.6789 131.103 63.6789C132.607 63.6789 132.568 63.4527 131.026 63.2894C127.517 62.9251 125.087 61.7443 124.355 60.0987C123.892 59.0058 123.853 57.9004 124.316 57.9004C125.126 57.9004 125.512 58.2647 125.28 58.8049C124.933 59.5837 125.743 60.6766 127.054 61.2795C127.671 61.5559 129.021 61.9328 130.023 62.1337C131.643 62.4478 132.26 62.4855 135.152 62.4855C138.044 62.4855 138.661 62.4478 140.242 62.1337C143.674 61.4805 144.792 60.7143 144.792 59.0184V57.9004H146.296C147.105 57.9004 147.954 57.9758 148.185 58.0637C148.416 58.1516 148.802 58.7169 149.033 59.3199C149.265 59.9354 149.805 60.7394 150.229 61.1037C152.774 63.3146 159.29 65.1612 169.123 66.4299C172.247 66.8319 172.902 67.1082 173.404 68.2137C173.943 69.495 173.558 73.9796 172.864 74.1178C172.594 74.1806 171.398 74.2308 170.203 74.2308C167.735 74.2308 167.542 74.168 167.542 73.3012C167.542 72.2586 164.959 69.7965 162.645 68.5905C158.866 66.656 151.733 64.9979 144.329 64.3069C140.743 63.9678 134.265 63.8422 130.717 64.0431C124.47 64.3949 118.378 65.5003 113.712 67.0957C108.931 68.7413 106.463 70.4246 105.537 72.6857C104.882 74.2434 104.92 74.2434 101.913 74.2559C99.2519 74.2685 99.2519 74.2434 99.3676 70.5753C99.4833 67.6233 99.5604 67.3218 100.216 67.0831C100.602 66.9449 103.031 66.4927 105.614 66.0656C108.159 65.6511 111.244 65.0732 112.44 64.7592C115.1 64.0808 118.301 62.7116 119.342 61.7946C120.267 60.9906 121.656 58.9054 121.656 58.3024C121.656 58.0135 121.81 57.9004 122.157 57.9381C122.465 57.9758 122.581 58.2396 122.465 58.8551ZM128.365 58.629C128.249 59.0435 128.326 59.5711 128.558 59.8726C129.329 60.7771 129.753 60.6263 129.483 59.546C129.29 58.7295 129.368 58.4783 129.907 58.2145C130.524 57.913 130.717 57.9004 134.149 57.9004C136.154 57.9004 138.044 57.9381 138.391 57.9758C138.853 58.0386 139.008 58.2396 139.008 58.8928C139.008 59.9731 138.506 60.4881 137.041 60.9906C135.113 61.6438 135.846 61.7318 138.506 61.179C141.167 60.6263 141.514 60.4002 141.9 58.9305C142.054 58.4406 142.324 58.026 142.517 58.026C142.71 58.026 142.864 58.4782 142.864 59.0435C142.864 60.2495 142.247 60.7519 140.126 61.3047C136.154 62.3347 131.797 62.1463 128.712 60.8273C127.748 60.4253 127.632 60.2495 127.517 59.144C127.362 58.0511 127.44 57.9004 127.979 57.9004C128.558 57.9004 128.596 58.0009 128.365 58.629ZM167.581 59.4706C169.548 60.0234 172.362 60.8399 173.866 61.2795C177.298 62.2719 179.728 62.7995 181.039 62.7995C181.578 62.7995 182.697 62.6865 183.506 62.5357C185.357 62.2217 185.82 62.3473 184.355 62.7618C183.352 63.0382 182.928 63.0759 181.154 63.0256C180.036 62.988 179.111 63.0131 179.111 63.0759C179.111 63.3522 177.992 63.1136 176.874 62.6111C176.18 62.2845 175.37 62.0458 174.946 62.0458C174.098 62.0458 169.895 60.8901 169.201 60.4756C168.931 60.3248 168.391 60.1615 167.967 60.1239C167.581 60.0987 167.003 59.9103 166.733 59.7093C166.347 59.4706 165.653 59.2822 164.458 59.144C162.877 58.9556 160.987 58.3275 160.987 58.0009C160.987 57.7873 163.918 58.4406 167.581 59.4706ZM177.067 58.4908C184.085 60.3248 185.627 60.9278 185.126 61.5936C184.817 61.983 182.851 62.4227 181.424 62.4227C180.267 62.4227 178.262 62.0081 174.869 61.0409C173.481 60.6514 170.859 59.9606 169.008 59.4958C165.884 58.7044 164.458 58.2396 164.458 58.0009C164.458 57.9381 166.81 57.9004 169.663 57.9004H174.83L177.067 58.4908ZM185.859 59.3953C194.766 61.7443 198.892 62.2217 206.797 61.8448C209.496 61.7192 212.697 61.6564 215.126 61.6941C218.481 61.7318 219.368 61.7946 221.527 62.1212C225.113 62.6739 227.658 63.3899 230.781 64.6964C232.902 65.6008 233.404 65.8772 233.057 66.0154C232.825 66.1159 232.748 66.3294 232.864 66.4927C232.979 66.6686 232.941 66.8319 232.748 66.8696C232.555 66.9073 230.087 66.5932 227.273 66.1787C221.566 65.337 218.211 65.0355 215.859 65.1737C214.046 65.2868 213.545 65.3747 213.044 65.6888C212.697 65.9023 212.735 65.9023 214.586 65.6762C216.9 65.3873 218.404 65.3747 220.177 65.6134C220.91 65.7139 221.527 65.8144 221.527 65.8395C221.527 65.8646 220.062 65.8521 218.249 65.8269C215.28 65.7892 214.817 65.8144 213.275 66.1159C209.843 66.7691 206.527 68.3519 205.602 69.7714C204.638 71.3165 206.758 72.535 212.234 73.5148C215.28 74.0549 215.434 74.2936 212.427 73.8665C209.92 73.5022 207.067 72.7862 206.103 72.2837C205.679 72.0576 205.139 71.6179 204.985 71.3165C204.676 70.8014 204.638 70.7889 204.599 71.2034C204.483 72.4596 206.758 73.3892 212.08 74.2434C215.357 74.771 216.63 75.1227 216.013 75.3111C215.473 75.487 209.111 75.5247 206.913 75.3614C202.208 75.0222 198.545 74.2434 196.656 73.1756C194.805 72.1204 193.995 70.9145 193.956 69.1433C193.956 67.5856 193.995 67.4725 195.229 66.5304C196.694 65.3747 196.733 65.2616 195.73 65.4375C194.303 65.6762 193.571 65.5506 190.1 64.4828C188.211 63.8924 187.015 63.4779 187.478 63.5532C189.098 63.8045 189.252 63.5909 187.748 63.1387C186.938 62.8875 186.707 62.6865 186.553 62.0207C186.437 61.5433 186.514 61.0157 186.784 60.7519C187.093 60.4756 187.131 60.2118 186.938 60.0987C186.746 59.9857 185.126 59.5209 183.352 59.0561C181.578 58.5913 180.036 58.1265 179.959 58.026C179.728 57.825 180.846 58.0888 185.859 59.3953ZM145.679 65.0355C156.321 66.2792 163.764 69.3443 165.306 73.1002C166.039 74.9468 164.805 77.0949 162.067 78.6275C160.486 79.5194 160.216 79.2556 161.72 78.2757C163.956 76.8186 164.573 76.0397 164.573 74.6077C164.573 72.5978 163.224 70.6884 160.987 69.5327C159.136 68.578 159.175 68.9423 161.141 70.299C163.455 71.9194 163.802 72.5224 163.609 74.5197C163.455 76.1653 163.416 76.1905 161.643 77.5346C158.018 80.2982 154.316 81.4162 144.599 82.7101C140.589 83.2502 140.165 83.3382 142.285 83.2251C143.635 83.1372 145.524 82.8985 150.576 82.1825C151.81 82.0066 151.848 82.0066 151.347 82.2076C150.537 82.5216 147.491 82.9864 144.368 83.2753C140.936 83.5768 133.262 83.6145 129.368 83.3507C121.656 82.8106 113.635 80.7127 110.087 78.3134C108.314 77.0824 107.774 76.4166 107.388 74.8087C106.887 72.736 108.005 71.1406 111.321 69.2312C113.095 68.2011 116.874 66.7942 118.648 66.4927C120.267 66.2164 119.959 66.4425 117.915 67.0329C115.293 67.7866 116.411 67.6987 119.766 66.8821C122.041 66.342 123.661 66.0782 127.748 65.6134C130.524 65.2868 132.838 65.0104 132.838 64.9979C132.838 64.9853 131.913 64.9979 130.833 65.0355C128.905 65.0858 127.285 65.2491 123.776 65.7516C122.388 65.9526 122.311 65.9526 122.812 65.7516C123.931 65.3119 127.131 64.9476 131.488 64.7592C132.144 64.7341 135.075 64.7215 138.044 64.7466C142.324 64.7717 143.905 64.8345 145.679 65.0355ZM105.267 75.3237C106.193 77.2205 108.391 78.9918 111.36 80.2354C115.216 81.881 122.62 83.4763 128.596 83.9662C138.738 84.7828 149.766 83.9034 157.093 81.6926C162.684 80.0093 166.501 77.7481 167.427 75.6126L167.735 74.9217L170.55 74.8966L173.326 74.884V78.3134C173.326 81.2655 173.249 81.7805 172.71 81.9438C172.247 82.1071 171.129 82.1448 166.925 82.1448H161.758L159.522 82.8106C155.319 84.0793 150.036 85.0214 144.599 85.4862C140.589 85.838 132.607 85.8003 128.211 85.4234C121.54 84.8456 116.103 83.8658 112.902 82.6724L111.707 82.2076L107.118 82.195C100.949 82.1825 100.949 82.1825 100.062 81.8935C99.3291 81.6549 99.2905 81.479 99.2905 78.3385C99.2905 76.5171 99.4062 74.9845 99.5604 74.9468C99.6761 74.8966 100.987 74.8589 102.414 74.8589H105.036L105.267 75.3237Z" fill="#00639A"/>
<path d="M10 54.6595V37.227H17.2074V43.9912H19.2376L26.3096 37.227H34.769L25.5821 45.8752L34.8705 54.6595H26.3096L19.8974 48.4741H17.2074V54.6595H10Z" fill="#00639A"/>
<path d="M36.3932 54.6595L36.3594 50.8235H37.2222C37.8313 50.8235 38.3558 50.7251 38.7957 50.5284C39.2468 50.3241 39.619 49.995 39.9123 49.541C40.2055 49.087 40.4368 48.4855 40.606 47.7364C40.7751 46.9798 40.8879 46.0492 40.9443 44.9445L41.3673 37.227H61.1284V54.6595H54.2594V41.029H47.8472L47.4411 46.3518C47.3396 47.8121 47.0745 49.0681 46.6459 50.1198C46.2286 51.1715 45.6477 52.034 44.9033 52.7074C44.1589 53.3733 43.2622 53.8651 42.2132 54.1829C41.1643 54.5006 39.9461 54.6595 38.5588 54.6595H36.3932Z" fill="#00639A"/>
<path d="M81.0797 44.116V47.9521H66.9865V44.116H81.0797ZM72.5527 37.227V54.6595H65.3623V37.227H72.5527ZM88.8623 55C86.2907 55 84.0687 54.6141 82.1964 53.8424C80.324 53.0706 78.8803 52.0038 77.8652 50.6419C76.8613 49.2799 76.3594 47.7175 76.3594 45.9546C76.3594 44.1917 76.8613 42.6368 77.8652 41.29C78.8803 39.9433 80.324 38.8916 82.1964 38.1349C84.0687 37.3783 86.2907 37 88.8623 37C91.4453 37 93.6673 37.3783 95.5283 38.1349C97.4007 38.8916 98.8388 39.9433 99.8426 41.29C100.858 42.6368 101.365 44.1917 101.365 45.9546C101.365 47.7175 100.858 49.2799 99.8426 50.6419C98.8388 52.0038 97.4007 53.0706 95.5283 53.8424C93.6673 54.6141 91.4453 55 88.8623 55ZM88.8623 51.0958C90.2046 51.0958 91.2874 50.8764 92.1107 50.4376C92.9341 49.9912 93.5376 49.3821 93.921 48.6103C94.3045 47.831 94.4963 46.9458 94.4963 45.9546C94.4963 44.9634 94.3045 44.0858 93.921 43.3216C93.5376 42.5498 92.9341 41.9445 92.1107 41.5057C91.2874 41.0668 90.2046 40.8474 88.8623 40.8474C87.5314 40.8474 86.4486 41.0668 85.614 41.5057C84.7793 41.9369 84.1646 42.5347 83.7698 43.2989C83.3863 44.0631 83.1946 44.9483 83.1946 45.9546C83.1946 46.9533 83.3863 47.8386 83.7698 48.6103C84.1646 49.3821 84.7793 49.9912 85.614 50.4376C86.4486 50.8764 87.5314 51.0958 88.8623 51.0958Z" fill="#00639A"/>
<path d="M128.816 37.227V54.6595H121.981V37.227H128.816ZM125.483 44.8764V48.6898C124.93 48.8562 124.242 49.0151 123.419 49.1665C122.595 49.3102 121.733 49.4275 120.83 49.5183C119.928 49.6091 119.082 49.6545 118.292 49.6545C114.559 49.6545 111.621 49.14 109.478 48.111C107.335 47.0744 106.263 45.4212 106.263 43.1513V37.2043H113.065V43.1513C113.065 43.8247 113.234 44.3581 113.572 44.7516C113.922 45.145 114.474 45.4288 115.23 45.6028C115.997 45.7692 117.018 45.8525 118.292 45.8525C119.477 45.8525 120.639 45.7692 121.778 45.6028C122.917 45.4363 124.152 45.1942 125.483 44.8764Z" fill="#00639A"/>
<path d="M150.603 43.1967V47.0328H134.801V43.1967H150.603Z" fill="#00639A"/>
<path d="M164.155 54.9887C162.497 54.9887 161.019 54.7957 159.722 54.4098C158.425 54.0164 157.399 53.4376 156.643 52.6734C155.899 51.9016 155.526 50.9407 155.526 49.7907C155.526 48.8222 155.791 48.0088 156.321 47.3506C156.852 46.6923 157.573 46.1627 158.487 45.7617C159.401 45.3607 160.438 45.058 161.6 44.8537C162.773 44.6494 164.003 44.5057 165.288 44.4224C166.8 44.3165 168.018 44.2182 168.943 44.1274C169.868 44.029 170.539 43.8852 170.956 43.6961C171.374 43.5069 171.582 43.227 171.582 42.8562V42.7881C171.582 42.0694 171.244 41.5132 170.567 41.1198C169.902 40.7264 168.954 40.5296 167.725 40.5296C166.428 40.5296 165.396 40.7226 164.629 41.1084C163.862 41.4868 163.354 41.9634 163.106 42.5385L156.44 42.1753C156.778 41.116 157.444 40.2005 158.436 39.4288C159.429 38.6494 160.709 38.0517 162.277 37.6356C163.856 37.2119 165.683 37 167.759 37C169.202 37 170.584 37.1135 171.904 37.3405C173.235 37.5675 174.413 37.9193 175.44 38.396C176.477 38.8726 177.295 39.4855 177.893 40.2346C178.491 40.976 178.79 41.8651 178.79 42.9016V54.6595H171.954V52.2421H171.751C171.334 52.7869 170.776 53.2673 170.076 53.6835C169.377 54.0921 168.537 54.4136 167.556 54.6482C166.574 54.8752 165.441 54.9887 164.155 54.9887ZM166.219 51.652C167.279 51.652 168.215 51.512 169.027 51.232C169.84 50.9445 170.477 50.5586 170.939 50.0744C171.402 49.5902 171.633 49.0416 171.633 48.4288V46.5788C171.407 46.6772 171.097 46.768 170.702 46.8512C170.319 46.9269 169.885 46.9987 169.4 47.0668C168.915 47.1274 168.43 47.1841 167.945 47.2371C167.46 47.2825 167.02 47.3241 166.625 47.3619C165.779 47.4451 165.04 47.5776 164.409 47.7591C163.777 47.9407 163.286 48.1866 162.937 48.4968C162.587 48.7995 162.412 49.1778 162.412 49.6318C162.412 50.29 162.768 50.7932 163.478 51.1412C164.2 51.4817 165.114 51.652 166.219 51.652Z" fill="#00639A"/>
<path d="M184.381 54.6595V37.227H195.463C198.666 37.227 201.198 37.6356 203.059 38.4527C204.92 39.2699 205.851 40.4313 205.851 41.9369C205.851 42.8827 205.327 43.6696 204.278 44.2976C203.229 44.9256 201.774 45.3493 199.913 45.5687C201.469 45.6444 202.794 45.8827 203.888 46.2837C204.994 46.6772 205.834 47.1879 206.409 47.8159C206.996 48.4439 207.289 49.14 207.289 49.9042C207.289 50.8953 206.894 51.7465 206.105 52.4578C205.327 53.169 204.182 53.7137 202.67 54.0921C201.17 54.4704 199.337 54.6595 197.172 54.6595H184.381ZM191.098 51.0391H197.172C198.176 51.0391 198.959 50.8802 199.523 50.5624C200.099 50.2371 200.386 49.7945 200.386 49.2346C200.386 48.6141 200.099 48.1261 199.523 47.7705C198.959 47.4149 198.176 47.2371 197.172 47.2371H191.098V51.0391ZM191.098 44.3997H195.615C196.337 44.3997 196.952 44.3317 197.459 44.1955C197.978 44.0517 198.373 43.8474 198.644 43.5826C198.926 43.3178 199.067 43.0038 199.067 42.6406C199.067 42.1034 198.745 41.6835 198.102 41.3808C197.459 41.0782 196.58 40.9269 195.463 40.9269H191.098V44.3997Z" fill="#00639A"/>
<path d="M210.478 41.029V37.227H234.029V41.029H225.654V54.6595H218.785V41.029H210.478Z" fill="#00639A"/>
<path d="M249.209 55C246.581 55 244.309 54.6255 242.391 53.8764C240.485 53.1198 239.013 52.0681 237.975 50.7213C236.938 49.367 236.419 47.797 236.419 46.0113C236.419 44.2106 236.938 42.6368 237.975 41.29C239.013 39.9357 240.485 38.884 242.391 38.1349C244.309 37.3783 246.581 37 249.209 37C251.837 37 254.105 37.3783 256.011 38.1349C257.928 38.884 259.406 39.9357 260.443 41.29C261.481 42.6368 262 44.2106 262 46.0113C262 47.797 261.481 49.367 260.443 50.7213C259.406 52.0681 257.928 53.1198 256.011 53.8764C254.105 54.6255 251.837 55 249.209 55ZM249.243 51.2547C250.439 51.2547 251.437 51.0277 252.238 50.5738C253.039 50.1122 253.642 49.4842 254.048 48.6898C254.466 47.8953 254.674 46.9912 254.674 45.9773C254.674 44.9634 254.466 44.0593 254.048 43.2648C253.642 42.4704 253.039 41.8424 252.238 41.3808C251.437 40.9193 250.439 40.6885 249.243 40.6885C248.036 40.6885 247.021 40.9193 246.198 41.3808C245.386 41.8424 244.771 42.4704 244.354 43.2648C243.948 44.0593 243.745 44.9634 243.745 45.9773C243.745 46.9912 243.948 47.8953 244.354 48.6898C244.771 49.4842 245.386 50.1122 246.198 50.5738C247.021 51.0277 248.036 51.2547 249.243 51.2547Z" fill="#00639A"/>
</svg>
